<svg xmlns="http://www.w3.org/2000/svg" width="321" height="37" viewBox="0 0 321 37"><g fill="#10100F" fill-rule="evenodd"><path d="M262.727929 19.872v-8.038h5.069c1.689 0 2.935.344 3.735 1.03.799.686 1.199 1.695 1.199 3.023 0 1.247-.402 2.223-1.207 2.928-.804.704-2.114 1.057-3.93 1.057h-4.866Zm5.069-9.421h-6.683v19.722h1.614v-8.919h5.489c1.428 0 2.519.344 3.274 1.031.754.686 1.132 1.648 1.132 2.887v5.001h1.626v-5.029c0-1.219-.256-2.216-.766-2.988-.51-.773-1.371-1.313-2.582-1.62v-.041c1.103-.379 1.954-.974 2.555-1.782.6-.809.902-1.747.902-2.813 0-1.816-.554-3.178-1.661-4.087-1.107-.908-2.74-1.362-4.9-1.362ZM89.2429294 20.048v-6.967h4.418c1.247 0 2.171.33 2.772.99.601.66.902 1.499.902 2.52s-.301 1.853-.902 2.495c-.601.642-1.525.962-2.772.962h-4.418Zm4.418-9.61h-7.712v19.735h3.294v-7.482h4.418c2.223 0 3.941-.549 5.151-1.647 1.2109996-1.098 1.8169996-2.591 1.8169996-4.48 0-1.87-.606-3.359-1.8169996-4.466-1.21-1.107-2.928-1.66-5.151-1.66Zm24.3979996 0h-15.614v2.643h6.154v17.092h3.293V13.081h6.167v-2.643Zm41.559 0h-12.43v19.735h12.497v-1.368h-10.884v-8.188h9.502v-1.383h-9.502V11.82h10.817v-1.382Zm18.095 0h-1.612v16.997l-.041.013-11.251-17.01h-1.626v19.735h1.626V13.148l.041-.014 11.251 17.039h1.612V10.438Zm24.588 19.735h1.626V10.438h-1.626v19.735Zm21.688-19.735h-1.614v16.997l-.039.013-11.251-17.01h-1.627v19.735h1.627V13.148l.041-.014 11.249 17.039h1.614V10.438Zm17.607 0h-12.43v19.735h12.498v-1.368h-10.884v-8.188h9.501v-1.383h-9.501V11.82h10.816v-1.382Zm15.995 0h-12.43v19.735h12.498v-1.368h-10.885v-8.188h9.501v-1.383h-9.501V11.82h10.817v-1.382Zm21.977 19.735h1.626V10.438h-1.626v19.735Zm21.687-19.735h-1.613v16.997l-.041.013-11.25-17.01h-1.627v19.735h1.627V13.148l.04-.014 11.251 17.039h1.613V10.438ZM74.0609294 27.761c-1.472 0-2.625-.531-3.455-1.593-.832-1.062-1.248-2.425-1.248-4.087v-3.579c0-1.644.413-2.994 1.24-4.052.827-1.058 1.977-1.586 3.45-1.586 1.518 0 2.711.532 3.579 1.592.867 1.063 1.3 2.411 1.3 4.046v3.579c0 1.662-.429 3.025-1.288 4.087-.857 1.062-2.051 1.593-3.578 1.593Zm-.013-17.608c-2.403 0-4.333.793-5.788 2.379-1.455 1.586-2.182 3.585-2.182 5.998v3.551c0 2.422.73 4.424 2.189 6.005 1.459 1.581 3.391 2.372 5.794 2.372 2.45 0 4.421-.789 5.917-2.366 1.495-1.577 2.244-3.58 2.244-6.011V18.53c0-2.413-.751-4.412-2.251-5.998-1.5-1.586-3.474-2.379-5.923-2.379Zm53.9069996 17.608c-1.473 0-2.625-.531-3.457-1.593-.831-1.062-1.247-2.425-1.247-4.087v-3.579c0-1.644.414-2.994 1.24-4.052.827-1.058 1.977-1.586 3.45-1.586 1.518 0 2.711.532 3.578 1.592.868 1.063 1.301 2.411 1.301 4.046v3.579c0 1.662-.428 3.025-1.287 4.087-.859 1.062-2.051 1.593-3.578 1.593Zm-.014-17.608c-2.404 0-4.333.793-5.787 2.379-1.456 1.586-2.183 3.585-2.183 5.998v3.551c0 2.422.729 4.424 2.189 6.005 1.46 1.581 3.39 2.372 5.795 2.372 2.448 0 4.42-.789 5.916-2.366 1.496-1.577 2.244-3.58 2.244-6.011V18.53c0-2.413-.751-4.412-2.251-5.998-1.499-1.586-3.474-2.379-5.923-2.379Zm61.931 0c-2.268 0-4.091.757-5.469 2.271-1.378 1.513-2.067 3.513-2.067 5.998v3.619c0 2.539.722 4.576 2.168 6.112 1.445 1.536 3.344 2.305 5.693 2.305 1.817 0 3.298-.273 4.446-.82 1.148-.547 1.943-1.15 2.386-1.809v-7.022h-6.873v1.382h5.26v5.152c-.353.451-.978.855-1.878 1.212-.899.357-2.012.535-3.341.535-1.888 0-3.4-.648-4.533-1.944-1.134-1.297-1.702-2.998-1.702-5.103v-3.646c0-2.043.533-3.697 1.6-4.962 1.066-1.265 2.503-1.898 4.31-1.898 1.735 0 3.031.403 3.89 1.207.858.804 1.405 1.88 1.64 3.226h1.613c-.235-1.78-.941-3.195-2.122-4.243-1.179-1.048-2.852-1.572-5.021-1.572Zm123.541 0c-2.268 0-4.091.757-5.469 2.271-1.378 1.513-2.067 3.513-2.067 5.998v3.619c0 2.539.722 4.576 2.168 6.112 1.447 1.536 3.344 2.305 5.694 2.305 1.816 0 3.297-.273 4.445-.82 1.148-.547 1.942-1.15 2.386-1.809v-7.022h-6.872v1.382h5.259v5.152c-.352.451-.978.855-1.878 1.212-.898.357-2.012.535-3.34.535-1.889 0-3.4-.648-4.534-1.944-1.135-1.297-1.702-2.998-1.702-5.103v-3.646c0-2.043.533-3.697 1.6-4.962 1.066-1.265 2.503-1.898 4.31-1.898 1.735 0 3.032.403 3.89 1.207.859.804 1.406 1.88 1.64 3.226h1.613c-.234-1.78-.942-3.195-2.121-4.243-1.179-1.048-2.853-1.572-5.022-1.572ZM32.8914294 3.8117c-2.646 0-5.145.628-7.361 1.739 1.327.824 2.532 1.824 3.587 2.965 1.192-.381 2.457-.593 3.774-.593h.019l3.29.006.007-4.111-3.289-.006h-.027"/><path d="M16.4430294 3.7819C7.37602943 3.7819.01602943 11.1239 0 20.1939c-.01697057 9.084 7.33302943 16.459 16.4140294 16.476h.031c8.086 0 14.808-5.84 16.182-13.537l-4.207-.007c-1.307 5.411-6.167 9.432-11.976 9.432h-.023c-6.81099997-.012-12.32199997-5.544-12.30899997-12.356.012-6.803 5.532-12.31 12.33199997-12.31h.023c5.819.012 10.676 4.055 11.965 9.477l4.206.007c-1.348-7.709-8.064-13.579-16.164-13.594h-.031"/><path d="M29.0748294 31.9826c-1.06 1.135-2.269 2.131-3.599 2.951 2.219 1.122 4.726 1.761 7.381 1.766l3.289.007.008-4.112-3.289-.006c-1.323-.002-2.595-.22-3.79-.606m8.5025-9.6938h15.999v-4.095h-15.999zm-.013 14.417h16.016v-4.11h-16.016zm0-28.776h16.016v-4.11h-16.016zM4.13772943 20.0191l11.49799997 8.59v-3.803zm11.49799997-1.534-11.47499997 1.534 11.47499997 1.633zm0-6.845-11.49799997 8.379 11.49799997-4.615zm1.6093 19.2608v-5.698c.596 1.882 1.515 3.617 2.699 5.137-.858.294-1.76.492-2.699.561m6.303-2.648c-1.423-1.666-2.416-3.708-2.792-5.964h6.233c-.465 2.358-1.705 4.436-3.441 5.964m3.453-10.069-6.237-.006c.386-2.267 1.396-4.315 2.838-5.98 1.725 1.537 2.948 3.624 3.399 5.986m-9.756-2.901v-5.777c.964.071 1.889.275 2.766.582-1.215 1.539-2.159 3.29-2.766 5.195m-.789-6.607v23.054c5.652 0 10.346-4.072 11.328-9.441h8.407v-4.094l-8.397-.01c-.955-5.402-5.663-9.509-11.338-9.509m40.0741-6.7759v-.651h.396c.171 0 .287.012.35.037.062.025.112.062.147.114.035.05.052.106.052.17 0 .1-.036.179-.11.24-.073.06-.211.09-.413.09h-.422Zm.394-.943h-.742v2.157h.348v-.917h.205c.121 0 .215.026.279.075.092.067.213.234.363.501l.192.341h.425l-.263-.422c-.126-.201-.232-.344-.32-.429-.044-.044-.106-.081-.183-.114.187-.013.335-.079.448-.197.112-.116.169-.253.169-.411 0-.111-.033-.217-.101-.316s-.157-.169-.27-.209c-.114-.04-.297-.059-.55-.059Zm.053 2.72c-.288 0-.565-.074-.831-.222-.266-.148-.473-.354-.62-.619-.148-.265-.222-.541-.222-.83 0-.29.075-.57.225-.838.15-.268.36-.474.626-.619.267-.144.54-.217.822-.217.28 0 .553.073.821.217.267.145.476.351.625.619.15.268.225.548.225.838 0 .289-.074.565-.221.83-.146.265-.353.471-.619.619-.265.148-.542.222-.831.222Zm0-3.677c-.336 0-.665.087-.985.259-.321.173-.571.42-.751.742-.179.321-.269.656-.269 1.005 0 .345.088.677.266.996.177.319.424.566.741.743.318.176.651.264.998.264s.68-.088.998-.264c.317-.177.564-.424.74-.743.177-.319.265-.651.265-.996 0-.349-.09-.684-.268-1.005-.179-.322-.429-.569-.75-.742-.32-.172-.648-.259-.985-.259Z"/></g></svg>